<svg width="24" height="24" viewBox="0 0 24 24" fill="none" xmlns="http://www.w3.org/2000/svg">
<path fill-rule="evenodd" clip-rule="evenodd" d="M14.296 18.6666C13.9072 19.7934 12.8595 20.5713 11.6614 20.5713C10.4607 20.5713 9.4145 19.7905 9.02675 18.6666H7.54313C6.25739 18.6666 5.21509 17.6006 5.21509 16.2856C5.21509 15.9525 5.28344 15.623 5.41574 15.3186L6.07411 13.8036V11.0475C6.07411 8.55948 7.62889 6.44283 9.79898 5.65838V5.33323C9.79898 4.28126 10.6328 3.42847 11.6614 3.42847C12.69 3.42847 13.5238 4.28126 13.5238 5.33323V5.65838C15.6939 6.44283 17.2487 8.55948 17.2487 11.0475V13.8036L17.9071 15.3186C18.4293 16.5202 17.9001 17.9273 16.7252 18.4614C16.4275 18.5967 16.1054 18.6666 15.7797 18.6666H14.296ZM13.2751 18.6666H10.0477C10.3724 19.2411 10.9797 19.6189 11.6614 19.6189C12.3419 19.6189 12.9498 19.2423 13.2751 18.6666ZM12.5926 5.41224V5.33323C12.5926 4.80725 12.1757 4.38085 11.6614 4.38085C11.1471 4.38085 10.7302 4.80725 10.7302 5.33323V5.41224C11.033 5.36028 11.3441 5.33323 11.6614 5.33323C11.9787 5.33323 12.2898 5.36028 12.5926 5.41224ZM11.6614 6.28562C9.08993 6.28562 7.00533 8.4176 7.00533 11.0475V13.9047L6.9652 14.0981L6.2667 15.7054C6.18732 15.8881 6.14631 16.0857 6.14631 16.2856C6.14631 17.0746 6.77169 17.7142 7.54313 17.7142H15.7797C15.9751 17.7142 16.1684 17.6722 16.347 17.5911C17.052 17.2706 17.3694 16.4264 17.0561 15.7054L16.3576 14.0981L16.3175 13.9047V11.0475C16.3175 8.4176 14.2329 6.28562 11.6614 6.28562Z" fill="black"/>
</svg>
